<?xml version="1.0" encoding="UTF-8"?>
<svg id="Capa_1" data-name="Capa 1" xmlns="http://www.w3.org/2000/svg" viewBox="0 0 421.29 236.86">
  <defs>
    <style>
      .cls-1 {
        fill: #fff;
      }

      .cls-2 {
        fill: #d2cc02;
      }
    </style>
  </defs>
  <path class="cls-1" d="m321.88,174.1c-13.65,0-24.33-.07-35.01.04-3.92.04-5.3-2.54-5.26-5.25.01-1.34.66-2.67,1.02-4,1.99-7.37,3.99-14.73,5.95-22.11.78-2.94,1.43-5.91,2.19-8.85.16-.62.55-1.16.61-1.84.04-.48.47-.48.89-.48,10.44.03,20.87.04,31.31.06.56,0,1.11-.02,1.67,0,1.23.02,1.29.1.99,1.33-.56,2.3-1.11,4.6-1.67,6.9q-.39,1.59-2.07,1.59c-6.68,0-13.36.03-20.04-.03-1.04,0-1.53.23-1.78,1.28-.31,1.29-.69,2.58-1.05,3.87-.27.95.15.96.85.96,5.88-.01,11.76-.02,17.64,0,.85,0,1.69-.15,2.54.05.45.1.63.16.46.74-.83,2.77-1.61,5.55-2.34,8.35-.2.77-.69.65-1.19.65-6.51,0-13.01.01-19.52-.01-.88,0-1.45.05-1.64,1.15-.22,1.31-.75,2.56-1.08,3.85-.17.66-.1,1.27.86,1.21.38-.03.76.02,1.15.02,16.84,0,33.67.02,50.51.02,1.41,0,2.81-1.32,2.96-2.78.18-1.76-.64-2.93-2.28-3.29-.72-.16-1.45-.15-2.18-.15-5.36,0-10.71,0-16.07,0-.56,0-1.1-.04-1.65-.2-2.62-.73-3.49-1.98-2.85-4.62,1.43-5.93,2.92-11.84,4.72-17.67.65-2.11,2.22-2.99,4.29-3.19.41-.04.83-.03,1.25-.03,11.31,0,22.61.02,33.92,0,.84,0,.99.14.75.97-.7,2.44-1.35,4.9-1.92,7.37-.26,1.14-.75,1.55-1.97,1.54-7.72-.06-15.45-.03-23.17-.03-2.31,0-3.67,1.82-3.04,4.04.27.96,2.01,2.01,3.4,2.02,4.35,0,8.7-.02,13.04,0,2.07.01,4.07.36,5.88,1.51,1.86,1.18,2.6,2.58,2.06,4.69-1.23,4.81-2.5,9.62-3.87,14.39-.88,3.08-3.22,4.75-6.17,5.61-2.03.59-4.15.47-6.23.45-9.95-.09-19.9-.14-26.87-.11Z"/>
  <path class="cls-1" d="m267.04,120.75c-6.61,0-13.22.01-19.83,0-1.8,0-2.16-.51-1.53-2.23.88-2.37,1.29-4.87,2.24-7.22.31-.75.68-1.11,1.51-1.1,7.48.01,14.96,0,22.44,0,1.12,0,2.23,0,3.35-.03,1.02-.04,1.82-.46,2.15-1.49.35-1.1.18-2.13-.55-3.03-.33-.41-.81-.45-1.32-.48-5.93-.32-11.87-.18-17.81-.18-.77,0-1.51-.13-2.24-.3-2.08-.48-3.01-2.17-2.41-4.37.53-1.93,1.16-3.85,1.67-5.77.67-2.54,1.36-5.09,1.98-7.66.48-2,1.11-3.97,1.58-5.98.47-2.04,1.43-2.51,3.57-2.52.87,0,1.78-.11,2.67-.11,11.51-.02,23.03-.02,34.54-.03.28,0,.56,0,.83.03.92.07,1.32.55,1.07,1.47-.7,2.61-1.39,5.22-2.13,7.82-.29,1.01-1.01,1.55-2.09,1.56-2.36.03-4.73.08-7.09.09-5.46.02-10.92,0-16.38.01-.87,0-1.74-.03-2.5.53-.95.7-1.32,1.62-1.01,2.62.34,1.07,1.17,1.73,2.31,1.73,5.84.02,11.69-.02,17.53.04,1.5.02,3.04.07,4.44.85,1.68.93,2.04,1.67,1.65,3.56-1.09,5.37-2.83,10.58-4.2,15.87-.43,1.64-1.09,3.23-1.68,4.83-.37,1.01-1.35,1.54-2.66,1.54-6.71,0-13.43,0-20.14,0v-.06Z"/>
  <path class="cls-1" d="m226.69,152.37c.48.47.98.37,1.45.37,2.06,0,3.26,1.43,2.77,3.47-.64,2.66-1.41,5.3-2.14,7.94-.62,2.27-1.29,4.54-1.89,6.82-.42,1.61-1.45,2.4-3.06,2.69-3.72.68-7.47.34-11.21.47-3.96.14-7.93.06-11.89.13-.83.02-.95-.26-.76-.95.63-2.27,1.24-4.55,1.87-6.83.1-.37.22-.73.32-1.1q.46-1.81,2.38-1.81c2.99,0,5.98.03,8.97,0,2.08-.02,4.09-2.49,3.71-4.53-.15-.8-.6-1.37-1.48-1.55-.76-.15-1.52-.15-2.28-.15-3.02,0-6.04,0-9.18,0,.78-2.23,1.17-4.45,1.77-6.62.15-.53.32-1.07.4-1.62.21-1.43.38-1.59,1.84-1.59,3.37,0,6.75.03,10.12.01,1.71,0,2.87-.93,3.19-2.44.38-1.77-.99-3.59-2.8-3.6-5.29-.03-10.57-.01-15.86-.02-.38,0-.58.04-.71.51-1.95,7.3-3.93,14.6-5.91,21.9-.82,3.05-1.65,6.09-2.45,9.14-.19.74-.5,1.04-1.33,1.04-3.54.02-7.09-.15-10.63.11-.4.03-.61-.02-.47-.49,1.72-5.91,3.3-11.87,4.87-17.82,1.97-7.44,4.01-14.87,5.99-22.31.51-1.93.45-1.94,2.49-1.94,9.95.01,19.89,0,29.84.06,2.3.01,4.55.37,6.51,1.75,1.66,1.17,2.43,2.86,1.99,4.71-.79,3.37-1.54,6.77-2.8,10.02-.69,1.8-1.73,3.31-3.61,4.21Z"/>
  <path class="cls-1" d="m183.21,78.24c3.16,0,6.33.02,9.49-.01.76,0,1.21.25,1.54.95,1.27,2.66,2.58,5.3,3.88,7.95.45.92.78,1,1.59.4,3.95-2.94,7.91-5.88,11.87-8.83.38-.28.81-.4,1.27-.4,5.28,0,10.57,0,15.85.01.21,0,.46-.03.56.18.12.27-.15.32-.31.43-3.08,1.97-5.84,4.37-8.85,6.43-5.51,3.76-10.72,7.92-16.16,11.79-.63.45-.68.78-.3,1.52,2.15,4.2,4.2,8.45,6.3,12.68,1.3,2.61,2.63,5.2,3.94,7.8.17.34.31.7.45,1.05.18.47.19.76-.5.76-6.26-.02-12.52-.02-18.78.03-1.25.01-1.93-.43-2.41-1.61-1.32-3.25-3.03-6.32-4.6-9.45-.27-.54-.44-.66-.96-.26-3.72,2.8-7.46,5.57-11.18,8.37-1.17.87-2.48,1.55-3.55,2.55-.33.31-.78.28-1.19.29-4.28.13-8.55.15-12.83.09-.88-.01-1.75.13-2.63,0-.21-.03-.48.17-.6-.13-.12-.29.16-.42.35-.56,1.33-1,2.66-2.01,4-3,7.64-5.68,15.28-11.36,22.93-17.01.57-.42.77-.76.43-1.45-3.06-6.11-6.09-12.23-9.13-18.35-.22-.43-.44-.87-.71-1.27-.53-.75-.24-.92.54-.92,3.23.02,6.47,0,9.7,0h0Z"/>
  <path class="cls-1" d="m142.43,120.96c-2.82,0-5.63-.02-8.45.01-.78,0-1.13-.19-1.09-1.06.08-1.88.04-3.76.11-5.63.03-.7-.17-.89-.87-.89-5.04,0-10.09-.03-15.13-.08-.76,0-1.27.24-1.75.87-1.56,2.05-3.2,4.04-4.82,6.04-.35.43-.85.7-1.44.7-3.96,0-7.93,0-11.89,0-.17,0-.35-.02-.52-.04-.19-.02-.45.07-.56-.16-.14-.3.16-.41.3-.59,1.82-2.26,3.64-4.51,5.47-6.77,1.63-2.01,3.3-3.99,4.87-6.05,1.55-2.04,3.24-3.97,4.87-5.95,5.82-7.03,11.74-13.99,17.35-21.18,1.14-1.46,2.26-2.06,4.14-2,5,.15,10.02.05,15.02.05,1.57,0,1.64,0,1.57,1.52-.16,3.47.4,6.9.47,10.36.05,2.47.23,4.96.41,7.44.2,2.85.17,5.71.54,8.56.22,1.7.17,3.44.25,5.16.14,2.9.25,5.79.43,8.68.05.77-.14,1.01-.95.99-2.78-.06-5.56-.02-8.35-.02v.03Zm-9.92-29.18c-3.6,4.07-6.86,8.02-10.08,12.13,3.24,0,6.29,0,9.35,0,.49,0,.75-.05.74-.65-.03-3.71-.01-7.43-.01-11.48Z"/>
  <path class="cls-1" d="m277.79,174.04c-3.67,0-7.35-.01-11.03,0-.62,0-.84-.42-1.05-.83-.69-1.37-1.41-2.72-2-4.13-1.5-3.55-3.59-6.81-5.13-10.34-.43-.98-.55-1.91-.28-2.92.67-2.52,1.46-5,1.93-7.57.15-.82.77-.69,1.29-.69,3.17-.02,6.33-.03,9.5-.01.54,0,1.03-.13,1.52-.3.38-.13.64-.37.74-.8.23-1,.54-1.98.72-2.98.21-1.19-.25-1.77-1.45-1.93-.45-.06-.9-.05-1.35-.05-5.53,0-11.06.02-16.59-.02-.94,0-1.3.2-1.56,1.18-2.5,9.39-5.07,18.75-7.64,28.12-.3,1.09-.22,2.59-1.04,3.14-.77.52-2.15.14-3.26.15-3.34.02-6.68,0-10.02.06-1.21.02-.67-.73-.56-1.16.88-3.36,1.82-6.7,2.72-10.05,2.55-9.49,5.08-18.98,7.62-28.47.21-.77.46-1.53.64-2.3.11-.5.38-.53.83-.53,12.52.02,25.05.02,37.57.03.8,0,1.6-.03,2.4.03,1.86.13,2.77,1.18,2.82,3.01.07,2.37-.61,4.59-1.22,6.83-1,3.65-1.97,7.3-2.96,10.95-.26.97-.6,1.92-1.18,2.77-.83,1.23-1.97,1.91-3.47,1.91-1.67,0-3.34.02-5.01-.01-.71-.02-.95.08-.59.85,2.31,5.01,4.58,10.03,6.86,15.05.14.31.39.58.25,1.02Z"/>
  <path class="cls-1" d="m91.46,78.25c6.57,0,13.15,0,19.72,0,1.67,0,1.83.17,1.31,1.73-.87,2.62-1.46,5.32-2.11,8.01-.22.92-.65,1.23-1.58,1.22-3.79-.03-7.58.02-11.37.01-.73,0-1.07.2-1.28.99-1.27,4.79-2.63,9.55-3.94,14.33-1.4,5.1-2.79,10.21-4.16,15.31-.2.75-.58,1.06-1.39,1.06-5.01-.04-10.02-.06-15.02-.05-.74,0-.78-.23-.64-.85.83-3.64,1.96-7.21,2.9-10.82.66-2.52,1.23-5.09,1.99-7.57.76-2.51,1.51-5.03,2.2-7.56.38-1.38.71-2.77,1.22-4.11.18-.46.04-.64-.4-.7-.28-.03-.55-.08-.83-.08-3.27,0-6.54,0-9.81,0-.24,0-.49.03-.73,0-.51-.08-.7-.14-.39-.82,1.02-2.2,1.36-4.62,2.07-6.93.24-.79.49-1.6.5-2.44,0-.44.24-.61.65-.62.62-.02,1.25-.09,1.87-.09,6.4,0,12.8,0,19.2,0h0Z"/>
  <path class="cls-2" d="m360.83,120.89c-2.68,0-5.36-.02-8.03,0-1.42.01-1.57-.13-1.33-1.56.38-2.26,1.13-4.43,1.7-6.64.55-2.14,1.36-4.19,1.75-6.38.24-1.33.95-2.58,1.3-3.92.74-2.75,1.44-5.5,2.21-8.24,1.09-3.88,2.24-7.74,3.34-11.61.25-.87.36-1.77.59-2.64.35-1.31.88-1.77,2.21-1.75,5.74.06,11.48.14,17.21.02,1.22-.02,1.57.46,1.23,1.67-1.15,4.09-2.47,8.15-3.47,12.27-.83,3.42-1.95,6.76-2.85,10.16-.85,3.22-1.53,6.5-2.57,9.65-.84,2.54-1.51,5.1-2.08,7.7-.13.6-.47.88-1.14.98-3.36.47-6.72.31-10.08.28Z"/>
  <path class="cls-1" d="m143.46,174.04c-4.52,0-9.04,0-13.56,0-.99,0-1.9-.3-2.82-.6-1.67-.54-2.15-2.72-1.8-4.19,1.99-8.3,4.47-16.47,6.53-24.75,1-4.03,2.4-7.94,3.17-12.03.12-.65.5-.89,1.08-.89,3.93.02,7.86.05,11.79.07.52,0,.61.22.53.7-.26,1.58-.81,3.08-1.22,4.62-2,7.57-4.05,15.14-6.05,22.71-.51,1.93.36,3.26,2.34,3.66.68.14,1.38.21,2.07.21,4.97,0,9.95,0,14.92-.04.81,0,1.09.19.87,1.01-.85,3.04-1.69,6.08-2.51,9.13-.17.63-.6.56-1.06.56-4.76,0-9.53,0-14.29,0,0-.06,0-.13,0-.19Z"/>
  <path class="cls-1" d="m230.52,120.91c-2.71,0-5.42-.03-8.13.02-.89.01-1.16-.2-.9-1.11,1.58-5.61,3.13-11.22,4.66-16.85.71-2.62,1.42-5.26,2.09-7.89,1.3-5.15,2.94-10.2,4.07-15.39.23-1.08.69-1.49,1.89-1.47,4.93.09,9.87.04,14.81.03,2.23,0,2.29.17,1.69,2.3-1.92,6.77-3.78,13.56-5.64,20.35-1.75,6.42-3.47,12.85-5.19,19.29-.15.57-.38.78-1,.77-2.78-.04-5.56-.02-8.34-.02,0,0,0-.02,0-.03Z"/>
  <path class="cls-2" d="m52.81,174.07c-2.57,0-5.15,0-7.72,0-1.14,0-1.27-.11-.97-1.18.56-2.02,1.18-4.03,1.76-6.05.21-.74.67-1.46.28-2.3-.06-.14.09-.39.16-.57.82-2.12,1.63-4.23,2.12-6.49.48-2.22,1.42-4.35,1.83-6.61.6-3.31,1.61-6.51,2.61-9.72.43-1.38.64-2.83,1.16-4.17.56-1.43.74-2.88.86-4.37.05-.6.4-.92,1.11-.92,4.38,0,8.76-.05,13.14-.05,1.04,0,2.08.14,3.12.21.5.03.73.2.67.78-.1,1.01-.26,1.98-.83,2.86-.24.36-.43.82-.46,1.25-.27,3.22-1.77,6.1-2.49,9.19-.35,1.5-.67,3-.95,4.52-.51,2.74-1.49,5.34-2.19,8.02-1.04,4-2.28,7.94-3.42,11.91-.29,1.02-.6,2.04-.82,3.08-.14.65-.57.59-1.02.59-2.64,0-5.29,0-7.93,0,0,0,0,.02,0,.03Z"/>
  <path class="cls-2" d="m348.35,78.1c1.95-.23,3.88.3,5.83.13.97-.08,1.94-.13,2.91-.22.77-.07,1.04.28.9.98-.13.64-.33,1.28-.51,1.91-1.04,3.71-2.1,7.41-3.1,11.13-.35,1.3-.53,2.65-.84,3.96-.44,1.86-1.35,3.58-1.64,5.48-.26,1.75-1.17,3.31-1.32,5.09-.17,2.02-1.15,3.84-1.64,5.77-.5,1.98-1.2,3.9-1.68,5.89-.04.17-.06.34-.11.51-.56,2.03-.57,1.89-2.63,2.1-3.52.37-7.03-.07-10.54.14-.24.01-.56.13-.71-.21.09-.04.18-.08.28-.12.03-.01.06,0,.1,0-.06-.04-.15-.06-.19-.12-.23-.37-.05-.74.03-1.11.79-3.55,1.84-7.02,2.87-10.51.92-3.13,1.42-6.39,2.28-9.54.39-1.43.97-2.81,1.35-4.25.72-2.71,1.61-5.36,2.23-8.11.62-2.73,1.59-5.39,2.43-8.07.19-.62.71-.82,1.31-.83.8,0,1.6,0,2.4,0Z"/>
  <path class="cls-1" d="m180.62,131.68c1.84,0,3.69.01,5.53,0,.64,0,.9.01.67.84-2.71,9.91-5.39,19.82-8.03,29.75-.95,3.55-2.13,7.04-2.88,10.65-.22,1.06-.98,1.56-2.15,1.31-1.39-.29-2.76-.11-4.14-.14-1.88-.04-3.76-.07-5.63,0-1.04.04-1.1-.3-.85-1.19,1.51-5.38,3.03-10.75,4.41-16.16,2.02-7.94,4.52-15.76,6.31-23.76.25-1.14.7-1.41,1.75-1.36,1.67.08,3.34.02,5.01.02,0,.01,0,.03,0,.04Z"/>
  <path class="cls-2" d="m74.4,173.97c-1.6,0-3.2.02-4.8,0-1.11-.02-1.33-.26-1.03-1.34.73-2.61,1.6-5.17,2.28-7.79,1.33-5.13,2.94-10.19,4.13-15.36.77-3.34,1.84-6.61,2.76-9.92.52-1.87,1.02-3.75,1.47-5.64.45-1.91.96-2.36,2.95-2.33,2.61.03,5.21.18,7.82,0,.66-.05.89.22.75.86-.5,2.32-.87,4.68-1.71,6.93-.33.87-.61,1.79-.74,2.71-.35,2.54-1.27,4.93-1.88,7.4-.86,3.51-1.51,7.12-3.03,10.46-.22.48-.11,1.1-.26,1.63-.8,2.88-1.63,5.74-2.45,8.61-.27.94-.49,1.88-.5,2.86,0,.72-.32,1.03-1.09,1-1.56-.06-3.13-.02-4.69-.02,0-.02,0-.03,0-.05Z"/>
  <path class="cls-2" d="m88.94,174.05c-1.11,0-2.22-.02-3.34,0-.75.02-.94-.26-.83-1.02.27-1.89.88-3.69,1.39-5.52.71-2.53,1.51-5.05,2.13-7.61.76-3.17,1.68-6.29,2.58-9.43,1.42-5,2.9-9.99,4.08-15.06.25-1.08.66-2.12,1.01-3.17.18-.54.58-.79,1.13-.71,2.02.31,4.02-.12,6.03-.06,1.32.04,1.47.37,1.13,1.6-.97,3.47-1.72,7.01-2.78,10.45-1.32,4.31-2.44,8.67-3.63,13.01-1.07,3.91-2.1,7.83-3.15,11.74-.46,1.69-1.22,3.3-1.46,5.05-.07.52-.39.74-.95.72-1.11-.04-2.22-.01-3.34,0Z"/>
  <path class="cls-2" d="m335.88,78.21c1.18,0,2.37-.04,3.54.01.93.04,1.07.36.72,1.2-.78,1.84-1.31,3.74-1.66,5.71-.3,1.71-1.2,3.27-1.61,4.97-1.14,4.67-2.4,9.31-3.81,13.9-.38,1.23-.86,2.42-.96,3.71,0,.07,0,.14-.04.2-1.47,2.84-1.59,6.09-2.76,9.03-.33.82-.39,1.75-.58,2.62-.19.85-.65,1.27-1.61,1.25-2.12-.06-4.24-.04-6.36.02-.89.02-.91-.47-.76-1.06.46-1.78.89-3.58,1.46-5.32,1.5-4.58,2.74-9.24,3.94-13.91.54-2.09.77-4.3,1.58-6.28,1.56-3.85,2.02-7.99,3.43-11.85.41-1.11.77-2.22,1.01-3.37.13-.63.53-.83,1.13-.82,1.11.02,2.23,0,3.34,0,0,0,0-.02,0-.02Z"/>
  <path class="cls-2" d="m312.47,120.85c-.83,0-1.67,0-2.5,0-.75-.01-.92-.42-.79-1.1,1.06-5.29,3.06-10.32,4.34-15.54,1.12-4.58,2.58-9.06,3.7-13.64.7-2.88,1.58-5.75,2.54-8.57.31-.92.56-1.86.71-2.82.1-.68.5-.98,1.12-1,1.56-.05,3.12-.1,4.69-.1.83,0,1.1.53.84,1.47-1.17,4.28-2.3,8.56-3.52,12.83-1.4,4.94-3.01,9.82-4.28,14.78-.97,3.76-2.24,7.43-3.15,11.2-.18.73-.7,1.34-.68,2.14,0,.41-.43.37-.74.37-.76,0-1.53,0-2.29,0v-.02Z"/>
  <path class="cls-2" d="m102.36,174.03c-1.11,0-2.22-.03-3.33,0-.83.03-1.04-.32-.84-1.09.49-1.84,1.09-3.67,1.41-5.55.48-2.76,1.85-5.28,2.11-8.09.08-.81.55-1.57.72-2.38.69-3.22,1.79-6.32,2.68-9.49.54-1.92,1.15-3.81,1.41-5.82.14-1.1.76-2.13,1.05-3.23.53-1.98.87-4,1.56-5.94.19-.54.43-.81,1.03-.79,1.07.03,2.13.05,3.21-.14.98-.17,1.29.36,1.03,1.34-.96,3.62-2.11,7.18-2.96,10.83-.66,2.82-1.69,5.54-2.47,8.33-.84,2.99-1.76,5.96-2.35,9.02-.31,1.6-.7,3.18-1.52,4.62-.05.09-.09.2-.09.29.07,2.19-.98,4.1-1.48,6.15-.1.4-.22.81-.23,1.22-.02.66-.36.84-.94.7Z"/>
  <path class="cls-2" d="m302.92,120.95c-1.88.05-2.13-.29-1.61-2.11,1.32-4.62,2.59-9.26,3.98-13.86.7-2.31,1.11-4.69,1.78-7,.66-2.3,1.56-4.53,1.98-6.89.61-3.49,1.65-6.86,2.73-10.22.05-.16.09-.34.11-.51q.26-2.2,2.44-2.25c2.31-.05,2.29,0,1.59,2.31-1.03,3.39-1.87,6.83-2.8,10.24-1.05,3.87-2.07,7.76-3.29,11.58-.63,1.96-.9,3.94-1.23,5.93-.11.66-.25,1.28-.62,1.85-.63.95-.81,2.08-.98,3.17-.19,1.29-.55,2.5-1.06,3.69-.25.57-.41,1.17-.49,1.8-.27,2.11-.39,2.22-2.52,2.27Z"/>
  <path class="cls-2" d="m109.89,174.02c-1.59-.06-2.15-.89-1.47-2.42,1.39-3.11,1.96-6.46,2.87-9.7.68-2.42,1.22-4.93,1.94-7.33.92-3.09,1.7-6.21,2.63-9.3.38-1.28.53-2.62.81-3.93.27-1.28.99-2.42,1.24-3.72.32-1.64.74-3.27,1.1-4.91.13-.6.38-1.02,1.08-1.02.27,0,.54-.11.81-.15,1.56-.25,1.89.13,1.47,1.61-.7,2.51-1.23,5.05-1.95,7.56-1.72,5.94-3.45,11.88-4.91,17.89-1.16,4.79-2.8,9.44-3.95,14.22-.22.92-.73,1.5-1.66,1.2Z"/>
  <path class="cls-2" d="m294.83,119.51c.27-1.32.45-2.6.83-3.86.68-2.23,1.08-4.54,1.79-6.75,1.21-3.8,2.13-7.67,3.23-11.48.67-2.31,1.48-4.58,2.16-6.89.82-2.8,1.58-5.62,2.26-8.45.17-.72.34-1.45.47-2.18.22-1.2.93-1.58,2.02-1.61.63-.02.93.17.8.84-.08.41-.07.85-.21,1.23-.85,2.27-1.33,4.64-1.99,6.97-1.29,4.54-2.76,9.03-3.84,13.61-.79,3.35-1.72,6.66-2.72,9.93-.92,3-1.26,6.14-2.55,9.05-.4.89-.82.96-1.51.92-.94-.05-.59-.84-.75-1.32Z"/>
  <path class="cls-2" d="m127.35,131.79c.93-.1.95.49.81,1.13-.29,1.24-.88,2.38-1.15,3.65-.91,4.23-2.23,8.36-3.24,12.57-.86,3.59-1.97,7.11-2.72,10.72-.66,3.15-1.65,6.23-2.64,9.29-.38,1.19-.43,2.47-1.02,3.6-.18.34-.34.69-.56.99-.27.37-.72.46-1.12.37-.47-.1-.47-.54-.49-.93-.05-.86.26-1.64.6-2.4.42-.94.66-1.91.64-2.93-.01-.73.4-1.31.62-1.95.66-1.9,1.23-3.81,1.5-5.81.13-1.02.76-1.9.93-2.92.34-2.14,1.49-4.12,1.76-6.21.4-3.12,1.54-6.01,2.28-9.01.79-3.2,1.74-6.39,2.78-9.53.19-.57.55-.64,1.04-.62Z"/>
</svg>