<?xml version="1.0" encoding="UTF-8"?>
<svg id="Capa_1" data-name="Capa 1" xmlns="http://www.w3.org/2000/svg" viewBox="0 0 1080 397">
  <defs>
    <style>
      .cls-1 {
        fill: #3d3d3d;
      }

      .cls-2 {
        fill: #cadd32;
      }
    </style>
  </defs>
  <path class="cls-1" d="m812.82,314.5c-26.47,0-52.93,0-79.4-.01-3.41,0-6.89-.07-9.65-2.46-3.72-3.23-5.24-7.56-4.25-12.23,1.54-7.21,3.67-14.3,5.59-21.44,6.12-22.74,12.28-45.48,18.36-68.23.47-1.77,1.19-2.66,3.17-2.65,22.19.06,44.38-.05,66.57.13,5.65.05,11.31.3,16.96.2,2.13-.04,2.55.76,1.99,2.7-1.77,6.09-3.64,12.15-5.02,18.35-.83,3.74-1.2,3.87-4.94,3.87-16.89,0-33.78.05-50.67-.06-2.49-.02-3.6.74-4.07,3.17-.56,2.89-1.52,5.71-2.25,8.57-.69,2.69-.42,3.09,2.38,3.11,9.4.05,18.81.03,28.21.04,6.7,0,13.41-.02,20.11.04,3.01.03,3.07.26,2.32,3.17-1.58,6.14-3.84,12.11-4.97,18.37-.45,2.47-1.69,3.34-4.29,3.32-16.02-.12-32.04-.02-48.06-.11-2.31-.01-3.53.67-4.03,2.97-.68,3.14-1.6,6.23-2.38,9.35-.43,1.71.12,2.72,2.06,2.65.61-.02,1.22.02,1.83.02,42.14,0,84.28.02,126.42.02,4.3,0,7.49-3.03,7.68-7.23.19-4.34-2.25-6.84-6.99-7.36-2.69-.3-5.38-.37-8.08-.37-12.1.01-24.2,0-36.31,0-1.3,0-2.59-.02-3.88-.37-6.86-1.85-9.06-5.26-7.42-12.16,3.35-14.03,6.88-28.02,11.02-41.85,2.32-7.75,6.15-10.42,14.97-10.47,13.58-.07,27.16-.02,40.75-.02,14.63,0,29.25,0,43.88.03,2.96,0,3.02.11,2.29,2.95-1.61,6.22-3.31,12.43-4.82,18.67-.64,2.63-1.9,3.63-4.71,3.61-19.15-.11-38.31-.06-57.46-.06-6.56,0-9.21,3.21-7.94,9.67.49,2.47,2.2,3.9,4.54,4.55,1.77.49,3.59.61,5.43.61,10.62-.03,21.24-.04,31.87,0,4.96.02,9.62,1.16,13.86,3.92,4.45,2.9,6.34,6.66,5.02,11.76-3.16,12.2-6.36,24.39-9.85,36.5-2.19,7.59-10.53,13.76-18.64,14.3-3.99.26-8,.44-11.99.44-25.07.04-50.15.02-75.22.02h0Z"/>
  <path class="cls-1" d="m683.34,181.02c-16.63,0-33.26.01-49.89,0-4.42,0-5.57-1.41-4.19-5.63,1.89-5.78,3.12-11.75,5.3-17.46,1.03-2.7,2.37-3.81,5.3-3.8,20.02.09,40.05.04,60.07.03,1.3,0,2.62-.02,3.9-.23,3.6-.57,5.06-2.41,4.99-6.1-.08-4.18-1.67-5.78-5.84-5.98-14.09-.69-28.2-.27-42.3-.46-2.1-.03-4.17-.2-6.23-.55-4.38-.73-6.83-3.65-6.91-8.11-.09-4.82,1.95-9.15,3.12-13.67,3.31-12.78,6.79-25.52,10.18-38.29,1.21-4.56,3.79-6.45,9.06-6.45,29.86,0,59.73,0,89.59.02,2,0,4.01-.09,6,.09,2.41.22,3.32,1.39,2.71,3.71-1.73,6.64-3.57,13.26-5.43,19.86-.62,2.22-2.17,3.45-4.47,3.85-1.64.29-3.28.34-4.94.34-18.37,0-36.74.02-55.11.02-1.83,0-3.65,0-5.31,1-2.42,1.44-3.37,3.35-2.82,6.16.51,2.6,2.2,4.09,4.79,4.48,1.11.17,2.26.13,3.39.13,14.37.01,28.73.03,43.1,0,3,0,5.89.44,8.68,1.54,4.59,1.82,6.07,4.33,5.08,9.16-1.41,6.9-2.96,13.78-5.11,20.48-2.9,9.03-4.7,18.36-7.78,27.33-.94,2.74-1.64,5.71-4.37,7.5-1.14.75-2.27,1.13-3.65,1.13-16.98-.03-33.95-.02-50.93-.02v-.08Z"/>
  <path class="cls-1" d="m583.98,259.5c.34.6.81.55,1.23.59,6.24.6,9.01,4.43,7.38,10.59-2.11,7.98-4.43,15.9-6.64,23.85-1.14,4.1-2.27,8.21-3.36,12.32-.89,3.38-3.17,5.4-6.44,6.12-2.7.59-5.5,1.03-8.26,1.07-17.05.27-34.11.38-51.16.61-1.82.02-2.37-.53-1.9-2.28,1.61-5.86,3.17-11.74,4.76-17.61.18-.67.39-1.33.57-2.01q1.42-5.41,7.18-5.41c7.48,0,14.97.06,22.45-.05,4.99-.07,9.62-7.29,7.75-11.9-.65-1.6-1.91-2.32-3.61-2.59-5.03-.81-10.08-.3-15.12-.41-3.57-.08-7.14-.05-10.71,0-1.75.02-2.33-.58-1.85-2.37,1.76-6.63,3.51-13.27,5.08-19.94.65-2.76,2.64-2.68,4.62-2.67,6.44,0,12.88.13,19.32.14,2.6,0,5.22.24,7.8-.34,3.63-.82,6.23-3.95,6.09-7.43-.13-3.13-3.12-6.37-6.41-6.85-1.2-.17-2.43-.18-3.64-.18-11.58-.01-23.15.04-34.73-.05-2.2-.02-3.11.62-3.71,2.86-6.75,25.17-13.65,50.31-20.52,75.45-.97,3.54-1,3.29-4.91,3.26-8-.07-16.01.06-24,.34-2.37.08-2.9-.4-2.28-2.67,5-18.36,9.97-36.73,14.88-55.11,4.15-15.53,8.22-31.07,12.27-46.62.36-1.37.91-2.22,2.33-2.36,1.29-.13,2.59-.33,3.89-.33,22.63-.02,45.26-.02,67.89,0,4.61,0,9.25.09,13.77.99,4.55.9,8.99,2.37,11.93,6.32,2.58,3.47,3.33,7.28,2.02,11.56-2.23,7.31-3.61,14.86-6.29,22.05-1.51,4.06-3.54,7.74-7.14,10.37-.24.18-.36.51-.5.71Z"/>
  <path class="cls-1" d="m473.43,74.33c7.66,0,15.32.07,22.98-.04,2.41-.04,3.91.77,4.94,2.95,2.95,6.2,6.03,12.34,9.03,18.52,1.43,2.95,2.06,3.09,4.62,1.19,9.63-7.17,19.3-14.28,28.93-21.44,1.19-.88,2.5-1.15,3.93-1.15,12.89.01,25.77.02,38.66.04.83,0,1.97-.27,2.26.78.27.98-.89,1.13-1.5,1.52-8.6,5.64-16.36,12.43-24.89,18.13-12.67,8.47-24.42,18.18-36.87,26.94-1.55,1.09-1.64,2.13-.83,3.73,8.49,16.95,16.92,33.92,25.37,50.89.04.08.08.15.12.23,2.24,4.46,1.98,4.89-2.97,4.89-14.63,0-29.25-.06-43.88.07-3.37.03-5.39-.89-6.78-4.23-3.16-7.63-7.01-14.95-10.89-22.25-1.09-2.05-2.09-2.42-3.97-.99-7.82,5.95-15.68,11.86-23.56,17.73-3.9,2.91-7.89,5.7-11.84,8.55-1.27.91-2.75,1.07-4.23,1.07-12.36,0-24.72-.02-37.09-.06-.82,0-1.94.29-2.24-.79-.25-.91.76-1.26,1.36-1.7,13.45-10.04,26.91-20.09,40.38-30.11,8.72-6.49,17.44-12.99,26.25-19.36,1.78-1.29,1.69-2.37.83-4.12-8.01-16.22-15.86-32.51-24.29-48.51-1.01-1.92-.64-2.45,1.88-2.46,8.1-.03,16.19-.01,24.29-.01h0Z"/>
  <path class="cls-1" d="m365.13,74.33c7.14,0,14.27.07,21.41-.04,2.15-.03,3.08.77,3.07,2.83-.03,8.35.6,16.66,1.16,24.98.96,14.38,1.3,28.79,2.46,43.16.7,8.65.83,17.35,1.24,26.02.12,2.51.31,5.03.51,7.53.15,1.84-.55,2.72-2.51,2.72-14.27-.03-28.54-.03-42.82.03-2.46,0-3-1.36-2.79-3.35.44-4.25.24-8.51.4-12.76.08-2.04-.64-2.75-2.69-2.74-12.44.04-24.89-.01-37.33-.06-1.59,0-2.75.46-3.79,1.79-3.52,4.53-7.22,8.92-10.76,13.44-1.95,2.49-4.15,3.79-7.53,3.71-9.22-.22-18.45-.05-27.67-.06-.91,0-2.13.29-2.55-.8-.35-.91.65-1.53,1.18-2.18,14.14-17.41,28.28-34.82,42.44-52.21,13.67-16.78,27.8-33.19,41.1-50.27.98-1.26,2.13-1.8,3.79-1.78,7.22.09,14.45.04,21.67.04h0Zm-19,34.65c-3.61,4.15-6.79,7.69-9.83,11.34-4.5,5.41-8.91,10.89-13.36,16.34-.86,1.06-1.14,1.85.74,1.84,6.87-.02,13.74-.02,20.61-.02,1.13,0,1.84-.39,1.84-1.64,0-9.02,0-18.04,0-27.86Z"/>
  <path class="cls-1" d="m670.37,207.49c15.76,0,31.52-.01,47.27.02,1.56,0,3.14.13,4.66.44,4.37.89,6.65,3.62,6.48,8.11-.24,6.21-2.11,12.13-3.71,18.08-2.37,8.81-4.8,17.61-7.24,26.4-.68,2.43-1.59,4.78-3.09,6.86-1.94,2.71-4.53,4.13-7.88,4.49-3.92.43-7.81.21-11.72,0-3.06-.16-3.38.35-2.17,3.03,5.44,12.04,10.9,24.08,16.37,36.11,1.36,2.98,1.26,2.92-2.03,3.15-7.92.55-15.83-.02-23.74,0-2.16,0-3.37-.78-4.26-2.64-2.56-5.33-5.32-10.56-7.7-15.97-2.95-6.68-6.98-12.83-9.95-19.51-1.15-2.59-1.56-5.03-.82-7.8,1.64-6.13,3.58-12.18,4.71-18.43.37-2.06,1.8-2.27,3.49-2.26,7.57.01,15.15,0,22.72,0,5.2-.01,6.21-.84,7.25-5.8.32-1.53.78-3.04,1-4.58.32-2.22-.47-3.76-2.94-4-1.47-.14-2.94-.4-4.41-.41-13.58-.03-27.16.04-40.74-.07-2.31-.02-3.15.83-3.71,2.93-4.39,16.54-8.89,33.06-13.36,49.58-2.5,9.23-5.43,18.33-7.53,27.66-.25,1.09-.94,1.3-1.91,1.31-10.79.1-21.58.2-32.37.35-2.61.04-2.27-1.49-1.83-3.12,3.11-11.49,6.26-22.98,9.35-34.48,4.4-16.37,8.75-32.75,13.15-49.11,1.67-6.21,3.46-12.38,5.08-18.59.46-1.78,1.65-1.72,2.99-1.72,8.71.01,17.41.02,26.12.02,7.49,0,14.97,0,22.46,0v-.03Z"/>
  <path class="cls-1" d="m272.98,102.24c-4.18,0-8.36,0-12.53,0q-4.25,0-5.34,3.96c-3.74,13.57-7.6,27.11-11.11,40.74-2.69,10.43-5.78,20.76-8.55,31.16-.7,2.61-2.13,3.45-4.68,3.4-11.31-.21-22.62.24-33.93-.36-5.21-.28-5.1-.04-3.85-5.06,4.28-17.2,9.16-34.24,13.8-51.35,1.73-6.37,3.55-12.72,5.39-19.06.96-3.3.89-3.47-2.66-3.48-7.83-.02-15.67,0-23.5,0-3.39,0-3.56-.39-2.75-3.64,1.83-7.42,4.28-14.68,5.71-22.2.24-1.25.91-1.82,2.09-1.9,1.04-.07,2.09-.09,3.13-.09,33.16-.01,66.33-.02,99.49-.02,3.98,0,4.14.2,3.15,3.95-1.89,7.14-4.37,14.12-5.86,21.36-.41,1.99-1.73,2.6-3.63,2.58-4.79-.05-9.57-.02-14.36-.02v.03Z"/>
  <path class="cls-1" d="m376.73,314.53c-9.92,0-19.85.06-29.77-.03-4.08-.03-8.19-.08-12.18-1.11-5.02-1.3-6.78-3.54-6.78-8.76,0-3.76.83-7.43,1.85-11.02,3.65-12.88,7.01-25.83,10.39-38.78,3.49-13.36,7.2-26.67,10.8-40,.27-1.01.55-2.01.78-3.03.94-4.18,1.19-4.43,5.33-4.33,8.88.21,17.76-.25,26.63.25,3.04.17,3.22.34,2.37,3.44-3.23,11.73-6.51,23.45-9.69,35.19-2.55,9.39-4.97,18.82-7.46,28.23-.58,2.21-.71,4.44-.75,6.71-.05,2.66,1.24,4.15,3.63,5.08,2.26.87,4.57,1,6.93,1,12.19,0,24.38-.01,36.56-.04,3.67,0,4,.35,3.04,3.91-1.82,6.71-3.82,13.37-5.51,20.12-.62,2.49-1.73,3.33-4.3,3.3-10.62-.14-21.24-.06-31.86-.06v-.06Z"/>
  <path class="cls-1" d="m620.45,74.35c6.96,0,13.93.04,20.89-.03,1.93-.02,2.42.52,1.88,2.44-4.18,14.8-8.34,29.61-12.37,44.45-5.18,19.03-10.26,38.09-15.3,57.16-.62,2.33-1.66,3.22-4.15,3.2-13.23-.11-26.46-.05-39.69-.06-3.45,0-3.69-.36-2.84-3.6,3.89-14.88,8.04-29.68,11.84-44.58,4.11-16.07,8.79-31.99,13.21-47.99.69-2.51,1.41-5.03,1.93-7.58.52-2.55,1.76-3.57,4.49-3.49,6.7.19,13.4.06,20.11.06h0Z"/>
  <path class="cls-1" d="m438.15,314.47c-4.09,0-8.18.01-12.27,0-3.76-.02-3.99-.36-3.02-3.87,8.95-32.59,17.99-65.16,26.41-97.89,1.32-5.14,1.3-5.22,6.78-5.15,8.35.1,16.7-.31,25.05.25,1.82.12,1.96.51,1.51,2.13-7.01,25.82-13.93,51.66-20.93,77.49-2.14,7.88-4.78,15.62-6.46,23.63-.53,2.51-1.85,3.64-4.56,3.51-4.16-.2-8.34-.05-12.51-.05v-.03Z"/>
  <g>
    <polygon class="cls-2" points="983.35 74 936.74 74 908.36 181 953.74 181 983.35 74"/>
    <polygon class="cls-2" points="920.69 74 890.96 74 861.69 181 891.19 181 920.69 74"/>
    <polygon class="cls-2" points="879.63 74 856.97 74 827.71 181 851.31 181 879.63 74"/>
    <polygon class="cls-2" points="846.59 74 831.01 74 802.22 181 818.27 181 846.59 74"/>
    <polygon class="cls-2" points="820.63 74 810.24 74 781.92 181 792.31 181 820.63 74"/>
    <polygon class="cls-2" points="802.22 74 795.14 74 766.35 181 775.31 181 802.22 74"/>
  </g>
  <g>
    <polygon class="cls-2" points="121 313.91 167.14 313.91 195.23 208 150.32 208 121 313.91"/>
    <polygon class="cls-2" points="183.02 313.91 212.46 313.91 241.43 208 212.23 208 183.02 313.91"/>
    <polygon class="cls-2" points="223.67 313.91 246.1 313.91 275.07 208 251.71 208 223.67 313.91"/>
    <polygon class="cls-2" points="256.38 313.91 271.8 313.91 300.3 208 284.41 208 256.38 313.91"/>
    <polygon class="cls-2" points="282.08 313.91 292.35 313.91 320.39 208 310.11 208 282.08 313.91"/>
    <polygon class="cls-2" points="300.3 313.91 307.31 313.91 335.81 208 326.93 208 300.3 313.91"/>
  </g>
</svg>